<svg width="64" height="64" viewBox="0 0 64 64" fill="none" xmlns="http://www.w3.org/2000/svg">
<rect width="64" height="64" fill="#5D3EBC"/>
<path d="M16.5423 38.465C15.0031 38.465 14.5265 37.9512 14.5265 36.4093V32.8667C14.5265 31.5081 14.0687 30.9027 12.8956 30.9027C11.8874 30.9027 11.3377 31.5819 11.3377 32.8115V38.4643H10.1647C8.68067 38.4643 7.85585 37.8768 7.85585 36.4086V32.866C7.85585 29.9662 9.77986 28.0752 12.9873 28.0752C16.5609 28.0752 18.0084 29.9655 18.0084 32.9577V38.4643H16.5423V38.465Z" fill="white"/>
<path d="M23.3591 38.465C22.3144 38.465 21.5082 37.7493 21.5082 36.5376V29.2688L20.3538 29.6357C20.0973 29.7088 19.8407 29.746 19.6021 29.746C18.8691 29.746 18.3008 29.3971 18.1911 28.7916L17.9712 27.5799L21.2882 26.1849C21.8379 25.9462 22.5344 25.7993 23.3226 25.7993C24.1109 25.7993 24.9901 26.3869 24.9901 27.3779V38.4633H23.3591V38.465Z" fill="white"/>
<path d="M31.3302 38.465C30.2855 38.465 29.4793 37.7493 29.4793 36.5376V29.2688L28.3249 29.6357C28.0683 29.7088 27.8118 29.746 27.5732 29.746C26.8401 29.746 26.2719 29.3971 26.1622 28.7916L25.9422 27.5799L29.2593 26.1849C29.8089 25.9462 30.5055 25.7993 31.2937 25.7993C32.0819 25.7993 32.9612 26.3869 32.9612 27.3779V38.4633H31.3302V38.465Z" fill="white"/>
<path d="M48.1862 19.421C48.6028 19.6155 49.1062 19.4155 49.3124 18.9735C49.5179 18.5314 49.3469 18.0163 48.931 17.8218C48.5152 17.628 48.0111 17.828 47.8056 18.2693C47.5994 18.7114 47.7711 19.2272 48.1862 19.421Z" fill="#231F1F"/>
<path d="M47.5024 17.9881C47.8236 17.4421 48.5042 17.1812 49.1001 17.4588V17.4598C49.6957 17.7384 49.9341 18.4268 49.7231 19.0242L49.6753 19.1424C49.3852 19.7642 48.6536 20.081 48.0171 19.784C47.3825 19.4877 47.1527 18.7226 47.4429 18.1004L47.5024 17.9881ZM48.9311 17.8221C48.5153 17.6283 48.0107 17.828 47.8052 18.2694C47.5991 18.7113 47.7712 19.2268 48.186 19.4207C48.6026 19.6152 49.1058 19.4154 49.312 18.9735C49.5175 18.5315 49.3469 18.0167 48.9311 17.8221Z" fill="white"/>
<path d="M53.5448 21.9245C53.9614 22.119 54.4655 21.919 54.671 21.4769C54.8765 21.0349 54.7061 20.5198 54.2889 20.3252C53.873 20.1308 53.369 20.3314 53.1635 20.7728C52.9579 21.2149 53.1283 21.73 53.5441 21.9245" fill="#231F1F"/>
<path d="M52.8009 20.6035C53.0902 19.9827 53.822 19.6655 54.4581 19.9629L54.5724 20.0234C55.1216 20.3544 55.3043 21.0626 55.0333 21.6455C54.7438 22.2681 54.0114 22.5841 53.3751 22.2871L53.5441 21.9248C53.9347 22.1071 54.4029 21.9423 54.629 21.5566L54.671 21.4765C54.8635 21.0622 54.726 20.5837 54.3644 20.3652L54.2892 20.3252C53.8734 20.1307 53.3688 20.3312 53.1632 20.7724C52.9577 21.2145 53.1283 21.7303 53.5441 21.9248L53.3742 22.2871C52.7388 21.9897 52.5121 21.2248 52.8009 20.6035Z" fill="white"/>
<path d="M43.8116 22.4462C45.5285 20.6139 48.2885 19.9983 50.6876 21.119C53.0858 22.2391 54.3873 24.7514 54.0889 27.246C55.7654 30.0431 56.0717 33.5981 54.5909 36.7792C52.2958 41.7082 46.5582 43.93 41.5841 41.9071L41.1055 41.6982C36.026 39.326 33.8307 33.2789 36.1993 28.1913L36.3448 27.8915C37.8661 24.8816 40.6974 22.943 43.8116 22.4462ZM50.5186 21.4814C48.2382 20.4159 45.6062 21.032 44.0118 22.8192C40.8671 23.2751 38.0056 25.2597 36.5616 28.3603C34.2861 33.2482 36.3956 39.0573 41.2745 41.3358C46.1528 43.6144 51.9516 41.4983 54.2276 36.6103C55.6709 33.5098 55.3496 30.0384 53.6759 27.3329C54.0078 25.0349 52.8725 22.6977 50.7286 21.5858L50.5186 21.4814Z" fill="white"/>
<path d="M53.2102 28.896C51.9096 31.6889 48.5967 32.8978 45.8091 31.5958C43.021 30.2938 41.8155 26.974 43.1154 24.1816C44.4161 21.3879 47.7297 20.1797 50.5178 21.4817C53.3052 22.783 54.51 26.1021 53.2094 28.8959" fill="#231F1F"/>
<path d="M54.2271 36.6104C51.9513 41.4984 46.1524 43.6145 41.2739 41.3357C36.3954 39.0568 34.286 33.2485 36.561 28.36C38.8367 23.4719 44.6357 21.3571 49.5149 23.6354C54.3932 25.9138 56.5028 31.7225 54.2271 36.6104Z" fill="#5D3EBC"/>
<mask id="mask0_12_20590" style="mask-type:alpha" maskUnits="userSpaceOnUse" x="35" y="22" width="21" height="21">
<path d="M36.562 28.3609C34.2863 33.2489 36.3959 39.0581 41.2749 41.3366C46.1532 43.6151 51.9521 41.4994 54.2281 36.6113C56.5032 31.7233 54.3943 25.9148 49.516 23.6363C48.1836 23.0142 46.7837 22.7197 45.4044 22.7197C41.7337 22.7197 38.2168 24.8079 36.5619 28.3615" fill="white"/>
</mask>
<g mask="url(#mask0_12_20590)">
<path d="M50.8431 26.6242C50.2679 27.86 48.8018 28.3945 47.568 27.8179C46.3343 27.2421 45.8006 25.7733 46.3757 24.5381C46.9508 23.3024 48.417 22.7679 49.6507 23.3444C50.8844 23.9202 51.4182 25.3891 50.8431 26.6242Z" fill="#FFD10D"/>
<path d="M43.4794 32.3718C43.0456 33.3041 41.9388 33.7075 41.0078 33.2724C40.0768 32.8379 39.6741 31.7297 40.1085 30.7973C40.5423 29.8649 41.6491 29.4616 42.5801 29.8967C43.5111 30.3311 43.9139 31.4394 43.4794 32.3718Z" fill="#FFD10D"/>
<path d="M42.2203 26.6773C41.9506 27.2566 41.2631 27.507 40.6852 27.2367C40.1073 26.9663 39.857 26.2781 40.1266 25.6987C40.3963 25.1195 41.0838 24.8692 41.6617 25.1388C42.2396 25.4092 42.4899 26.0981 42.2203 26.6773Z" fill="#FFD10D"/>
<path d="M39.9236 36.219C39.654 36.7982 38.9665 37.0486 38.3885 36.779C37.8107 36.5086 37.5603 35.8204 37.83 35.2411C38.0996 34.6618 38.7872 34.4115 39.3651 34.6818C39.943 34.9521 40.1933 35.6397 39.9236 36.219Z" fill="#FFD10D"/>
<path d="M46.7161 33.8831C46.2824 34.8154 46.6851 35.9236 47.6154 36.3581C48.5464 36.7925 49.6525 36.3898 50.087 35.4574C50.5208 34.525 50.1181 33.4169 49.1877 32.9824C48.2568 32.5479 47.1506 32.9514 46.7161 33.8831Z" fill="#FFD10D"/>
<path d="M51.8812 31.1888C51.6115 31.7681 51.8618 32.4563 52.4398 32.7266C53.0176 32.997 53.7052 32.746 53.9749 32.1674C54.2445 31.5881 53.9942 30.8999 53.4163 30.6295C52.8384 30.3592 52.1508 30.6102 51.8812 31.1888Z" fill="#FFD10D"/>
<path d="M46.0594 39.0843C45.7898 39.6636 46.0401 40.3519 46.618 40.6222C47.1959 40.8925 47.8835 40.6415 48.1531 40.0622C48.4227 39.483 48.1724 38.7947 47.5945 38.5244C47.0166 38.2541 46.329 38.5058 46.0594 39.0843Z" fill="#FFD10D"/>
<path d="M49.5696 23.5194C49.4834 23.4793 49.3965 23.4435 49.3089 23.4062L40.9121 41.4421C40.9969 41.4842 41.0803 41.5284 41.1665 41.569C41.2527 41.609 41.3396 41.6449 41.4272 41.6828L49.824 23.6469C49.7393 23.6041 49.6565 23.5607 49.5696 23.5201" fill="#231F1F"/>
</g>
</svg>
