<svg width="64" height="64" viewBox="0 0 64 64" fill="none" xmlns="http://www.w3.org/2000/svg">
<rect width="64" height="64" fill="#1D42C9"/>
<mask id="mask0_30_308" style="mask-type:alpha" maskUnits="userSpaceOnUse" x="0" y="0" width="64" height="64">
<rect width="64" height="64" fill="#C4C4C4"/>
</mask>
<g mask="url(#mask0_30_308)">
<path d="M4 42.6285H14.7164V34.9831H16.6975C19.5521 34.9831 20.9092 35.709 20.9092 37.9486V42.6285H31.6568V37.9795C31.6568 34.2263 29.473 33.0524 25.7136 32.5119C28.8646 31.8786 31.4072 30.1796 31.4072 26.6272C31.4072 22.5651 28.0067 20.48 20.7376 20.48H4V42.6285ZM14.7164 30.1024V25.4379H17.3682C19.4585 25.4379 20.8156 25.9939 20.8156 27.662C20.8156 29.4691 19.4117 30.1024 17.3682 30.1024H14.7164Z" fill="white"/>
<path d="M46.5694 43.2C53.6981 43.2 59.1421 40.9295 59.922 36.6048H49.4708C49.268 37.9795 48.176 38.7517 46.7098 38.7517C44.5883 38.7517 43.746 37.3462 43.6524 35.5082H60V34.6896C60 28.3107 54.6184 24.9746 46.7253 24.9746C38.1928 24.9746 33.2791 28.5424 33.2791 34.2263C33.2791 40.08 38.6607 43.2 46.5694 43.2ZM43.6992 31.9558C43.902 30.2877 44.9159 29.2683 46.6785 29.2683C48.4412 29.2683 49.3772 30.4113 49.424 31.9558H43.6992Z" fill="white"/>
</g>
</svg>
